<svg width="41" height="41" viewBox="0 0 41 41" fill="none" xmlns="http://www.w3.org/2000/svg">
<path d="M20.686 0.448181C9.64072 0.448181 0.686035 9.40245 0.686035 20.4482C0.686035 31.4939 9.64072 40.4482 20.686 40.4482C31.7314 40.4482 40.686 31.4939 40.686 20.4482C40.686 9.40245 31.7314 0.448181 20.686 0.448181ZM30.8311 22.6112C31.7633 23.5217 32.7495 24.3786 33.5863 25.3832C33.957 25.8276 34.3065 26.2872 34.5725 26.804C34.9522 27.541 34.6093 28.3492 33.9497 28.3929L29.8523 28.3921C28.7941 28.4797 27.9519 28.0529 27.2419 27.3294C26.6752 26.7528 26.1494 26.137 25.6035 25.5408C25.3805 25.2961 25.1456 25.0657 24.8657 24.8844C24.3071 24.521 23.8218 24.6323 23.5018 25.2159C23.1757 25.8096 23.1012 26.4676 23.0701 27.1285C23.0255 28.0946 22.7341 28.3471 21.7647 28.3925C19.6933 28.4895 17.7279 28.1752 15.9012 27.1309C14.2897 26.2098 13.0425 24.9098 11.9556 23.4378C9.83918 20.5685 8.21831 17.4192 6.76194 14.1795C6.43417 13.4499 6.67396 13.0595 7.47887 13.0444C8.81616 13.0186 10.1535 13.0219 11.4907 13.0432C12.035 13.0518 12.3951 13.3632 12.6042 13.8767C13.3269 15.6547 14.2128 17.3464 15.323 18.9153C15.6188 19.3331 15.9208 19.7497 16.3509 20.0447C16.8256 20.3704 17.1873 20.2628 17.4112 19.7329C17.5544 19.3961 17.6162 19.036 17.6473 18.6751C17.7537 17.4389 17.7663 16.2031 17.5822 14.9718C17.4676 14.2012 17.0343 13.7036 16.2662 13.558C15.875 13.4839 15.9323 13.339 16.1226 13.1156C16.4528 12.7293 16.7621 12.4903 17.3805 12.4903L22.0098 12.4895C22.7394 12.6327 22.9031 12.9601 23.0021 13.695L23.0062 18.8396C22.9976 19.124 23.1491 19.967 23.6597 20.1531C24.069 20.2882 24.339 19.96 24.5837 19.701C25.6939 18.5229 26.4849 17.1324 27.1932 15.6932C27.5059 15.0585 27.7755 14.4017 28.0374 13.7437C28.2322 13.2572 28.535 13.0178 29.0842 13.026L33.5421 13.0313C33.6735 13.0313 33.8069 13.0325 33.937 13.055C34.6883 13.1835 34.8941 13.5068 34.6617 14.2397C34.2959 15.3912 33.5851 16.3504 32.8902 17.312C32.1455 18.3416 31.3512 19.3351 30.6138 20.3692C29.9362 21.3145 29.9898 21.7904 30.8311 22.6112Z" fill="#74073B" fill-opacity="0.7"/>
</svg>
