<svg width="31" height="31" viewBox="0 0 31 31" fill="none" xmlns="http://www.w3.org/2000/svg">
<path d="M27.1638 23.0732C25.4601 23.0732 24.0742 24.7286 24.0742 26.7636C24.0742 28.7986 25.4601 30.4541 27.1638 30.4541C28.8675 30.4541 30.2534 28.7986 30.2534 26.7636C30.2534 24.7286 28.8675 23.0732 27.1638 23.0732Z" fill="#74073B"/>
<path d="M27.1633 6.04943C27.1633 5.06314 26.494 4.26368 25.6683 4.26368H7.00678L6.71064 3.08419C6.31547 1.51111 5.12631 0.454071 3.7514 0.454071H1.74844C0.922719 0.454071 0.253418 1.25353 0.253418 2.23983C0.253418 3.22613 0.922719 4.02559 1.74844 4.02559H3.7514C3.79559 4.02559 3.8341 4.05954 3.84694 4.11035L7.60824 19.0857C8.20731 21.4707 10.0104 23.0732 12.095 23.0732H22.4794C25.0624 23.0732 27.1638 20.5631 27.1638 17.4778V6.04943H27.1633ZM24.1732 17.478C24.1732 18.594 23.4132 19.5019 22.4789 19.5019H12.0944C11.3404 19.5019 10.6881 18.9223 10.4714 18.0596L7.90365 7.83519H24.1732V17.478Z" fill="#74073B"/>
<path d="M6.58226 23.0732C4.87858 23.0732 3.49268 24.7286 3.49268 26.7636C3.49268 28.7986 4.87858 30.4541 6.58226 30.4541C8.28594 30.4541 9.67185 28.7986 9.67185 26.7636C9.67185 24.7286 8.28594 23.0732 6.58226 23.0732Z" fill="#74073B"/>
</svg>
