<svg width="105" height="50" viewBox="0 0 105 50" fill="none" xmlns="http://www.w3.org/2000/svg">
<path d="M49.0616 24.7642C49.0616 38.1646 38.1911 49.0283 24.7808 49.0283C11.3706 49.0283 0.5 38.1646 0.5 24.7642C0.5 11.3637 11.3706 0.5 24.7808 0.5C38.1911 0.5 49.0616 11.3637 49.0616 24.7642Z" fill="white" stroke="#74073B"/>
<path d="M38.4413 24.7642C38.4413 32.3031 32.3256 38.4151 24.7808 38.4151C17.236 38.4151 11.1204 32.3031 11.1204 24.7642C11.1204 17.2253 17.236 11.1132 24.7808 11.1132C32.3256 11.1132 38.4413 17.2253 38.4413 24.7642Z" fill="white" stroke="#74073B"/>
<path d="M20.7391 31.8962C18.5151 31.8962 16.8911 31.3202 15.8671 30.1682C14.8431 29.0002 14.3311 27.5522 14.3311 25.8242C14.3311 25.3122 14.3871 24.7362 14.4991 24.0962C14.7871 22.5122 15.3871 21.1362 16.2991 19.9682C17.2111 18.7842 18.2991 17.8882 19.5631 17.2802C20.8431 16.6562 22.1631 16.3442 23.5231 16.3442C24.1631 16.3442 24.8191 16.4162 25.4911 16.5602C26.1791 16.6882 26.7151 16.8482 27.0991 17.0402C27.1951 17.1042 27.2511 17.1682 27.2671 17.2322C27.2991 17.2962 27.3071 17.4162 27.2911 17.5922L26.9071 20.8082C26.9071 20.8562 26.8671 20.8802 26.7871 20.8802C26.7071 20.8802 26.6591 20.8562 26.6431 20.8082C26.3711 19.6082 25.8751 18.6722 25.1551 18.0002C24.4511 17.3282 23.5791 16.9922 22.5391 16.9922C21.1471 16.9922 19.9711 17.5522 19.0111 18.6722C18.0671 19.7922 17.4591 21.3362 17.1871 23.3042C17.0911 23.9762 17.0431 24.6322 17.0431 25.2722C17.0431 26.4402 17.1951 27.4882 17.4991 28.4162C17.8031 29.3442 18.2431 30.0802 18.8191 30.6242C19.4111 31.1522 20.0991 31.4162 20.8831 31.4162C21.6831 31.4162 22.4991 31.1202 23.3311 30.5282C24.1631 29.9362 25.0431 29.0162 25.9711 27.7682C25.9871 27.7362 26.0191 27.7202 26.0671 27.7202C26.1151 27.7202 26.1551 27.7362 26.1871 27.7682C26.2351 27.7842 26.2511 27.8082 26.2351 27.8402L25.5871 30.6002C25.5391 30.7922 25.4911 30.9282 25.4431 31.0082C25.3951 31.0722 25.2991 31.1202 25.1551 31.1522C23.7151 31.6482 22.2431 31.8962 20.7391 31.8962ZM40.6805 29.6642C40.7285 29.6642 40.7765 29.6962 40.8245 29.7602C40.8725 29.8242 40.8805 29.8722 40.8485 29.9042C40.1285 30.6082 39.5605 31.1042 39.1445 31.3922C38.7445 31.6802 38.3285 31.8242 37.8965 31.8242C37.4325 31.8242 37.1365 31.6642 37.0085 31.3442C36.8805 31.0242 36.8325 30.4962 36.8645 29.7602L37.0085 24.6722L33.5765 31.6082C33.5285 31.6882 33.4325 31.7282 33.2885 31.7282C33.1765 31.7282 33.1045 31.6882 33.0725 31.6082L31.5125 24.9122C31.0485 26.8802 30.6805 28.3122 30.4085 29.2082C30.1365 30.1042 29.8325 30.7682 29.4965 31.2002C29.1605 31.6162 28.7205 31.8242 28.1765 31.8242C27.7445 31.8242 27.4245 31.7122 27.2165 31.4882C27.0085 31.2642 26.9285 30.9762 26.9765 30.6242C27.0405 30.0002 27.4725 29.6882 28.2725 29.6882C28.6725 29.6882 29.0005 29.5762 29.2565 29.3522C29.5285 29.1122 29.8245 28.5842 30.1445 27.7682C30.4645 26.9522 30.8405 25.6802 31.2725 23.9522C31.1605 23.6642 31.0085 23.4402 30.8165 23.2802C30.6245 23.1202 30.4245 23.0402 30.2165 23.0402C29.9445 23.0402 29.6645 23.1842 29.3765 23.4722C29.3605 23.4882 29.3365 23.4962 29.3045 23.4962C29.2405 23.4962 29.1845 23.4722 29.1365 23.4242C29.1045 23.3762 29.1125 23.3362 29.1605 23.3042C29.5125 22.9522 29.8805 22.6802 30.2645 22.4882C30.6485 22.2802 31.0165 22.1762 31.3685 22.1762C31.8485 22.1762 32.2645 22.2882 32.6165 22.5122C32.9685 22.7362 33.1925 23.0802 33.2885 23.5442L34.3685 28.8722L37.4165 22.6562C37.4805 22.5122 37.5765 22.4162 37.7045 22.3682C37.8485 22.3042 38.0725 22.2722 38.3765 22.2722C38.6485 22.2722 38.8405 22.3042 38.9525 22.3682C39.0645 22.4162 39.1205 22.5122 39.1205 22.6562L38.9045 29.4722C38.8885 29.8402 38.9205 30.0882 39.0005 30.2162C39.0805 30.3282 39.2085 30.3842 39.3845 30.3842C39.7685 30.3842 40.1845 30.1522 40.6325 29.6882L40.6805 29.6642ZM51.191 29.7602C51.207 29.7442 51.231 29.7362 51.263 29.7362C51.311 29.7362 51.351 29.7682 51.383 29.8322C51.415 29.8802 51.415 29.9202 51.383 29.9522C50.359 31.2002 49.463 31.8242 48.695 31.8242C48.279 31.8242 47.975 31.7122 47.783 31.4882C47.591 31.2482 47.495 30.8802 47.495 30.3842C47.495 30.1122 47.519 29.8082 47.567 29.4722L47.855 27.8402C47.247 29.1202 46.519 30.1202 45.671 30.8402C44.839 31.5602 44.023 31.9202 43.223 31.9202C42.727 31.9202 42.335 31.7682 42.047 31.4642C41.759 31.1602 41.615 30.7042 41.615 30.0962C41.615 29.0242 41.967 27.8562 42.671 26.5922C43.391 25.3122 44.271 24.2322 45.311 23.3522C46.367 22.4722 47.359 22.0322 48.287 22.0322C48.575 22.0322 48.871 22.0882 49.175 22.2002C49.495 22.2962 49.767 22.4482 49.991 22.6562C50.295 22.4322 50.543 22.1602 50.735 21.8402C50.767 21.8082 50.799 21.7922 50.831 21.7922C50.879 21.7922 50.927 21.8082 50.975 21.8402C51.023 21.8722 51.039 21.8962 51.023 21.9122L49.631 29.4722C49.583 29.6802 49.559 29.8642 49.559 30.0242C49.559 30.4082 49.671 30.6002 49.895 30.6002C50.199 30.6002 50.631 30.3202 51.191 29.7602ZM44.759 30.1682C45.239 30.1682 45.727 29.9202 46.223 29.4242C46.735 28.9122 47.175 28.2962 47.543 27.5762C47.927 26.8402 48.175 26.1602 48.287 25.5362C48.335 25.2642 48.359 25.0242 48.359 24.8162C48.359 24.3042 48.239 23.9122 47.999 23.6402C47.775 23.3522 47.455 23.2082 47.039 23.2082C46.303 23.2082 45.647 23.6082 45.071 24.4082C44.511 25.1922 44.119 26.2162 43.895 27.4802C43.815 27.9922 43.775 28.3762 43.775 28.6322C43.775 29.1602 43.863 29.5522 44.039 29.8082C44.215 30.0482 44.455 30.1682 44.759 30.1682ZM62.263 29.6882C62.279 29.6722 62.303 29.6642 62.335 29.6642C62.383 29.6642 62.423 29.6962 62.455 29.7602C62.487 29.8082 62.487 29.8562 62.455 29.9042C61.847 30.6082 61.343 31.1122 60.943 31.4162C60.559 31.7202 60.159 31.8722 59.743 31.8722C59.215 31.8722 58.871 31.6802 58.711 31.2962C58.551 30.8962 58.471 30.3122 58.471 29.5442V28.6322C58.471 28.0402 58.407 27.5842 58.279 27.2642C58.151 26.9442 57.879 26.7842 57.463 26.7842L56.983 26.8322C56.551 27.5842 56.167 28.3682 55.831 29.1842C55.511 29.9842 55.287 30.6962 55.159 31.3202C55.079 31.6402 54.631 31.8002 53.815 31.8002C53.287 31.8002 53.023 31.7362 53.023 31.6082L53.119 31.1042C53.279 30.3522 53.367 29.9282 53.383 29.8322L54.367 24.4802C54.399 24.3362 54.415 24.1602 54.415 23.9522C54.415 23.5202 54.279 23.3042 54.007 23.3042C53.671 23.3042 53.207 23.6242 52.615 24.2642C52.599 24.2802 52.575 24.2882 52.543 24.2882C52.495 24.2882 52.455 24.2642 52.423 24.2162C52.391 24.1522 52.391 24.0962 52.423 24.0482C52.999 23.3762 53.511 22.8882 53.959 22.5842C54.423 22.2802 54.887 22.1282 55.351 22.1282C56.103 22.1282 56.479 22.5522 56.479 23.4002C56.479 23.6402 56.455 23.9042 56.407 24.1922L55.735 27.9602C56.215 26.8722 56.783 25.8882 57.439 25.0082C58.095 24.1122 58.759 23.4082 59.431 22.8962C60.103 22.3682 60.703 22.1042 61.231 22.1042C61.631 22.1042 61.943 22.2002 62.167 22.3922C62.391 22.5842 62.503 22.8322 62.503 23.1362C62.503 23.4402 62.399 23.7122 62.191 23.9522C61.983 24.1762 61.695 24.2882 61.327 24.2882C61.071 24.2882 60.783 24.2002 60.463 24.0242C60.239 23.8962 60.079 23.8322 59.983 23.8322C59.599 23.8322 59.167 24.0562 58.687 24.5042C58.223 24.9522 57.751 25.5522 57.271 26.3042C57.655 26.2082 58.031 26.1602 58.399 26.1602C59.167 26.1602 59.687 26.3602 59.959 26.7602C60.231 27.1442 60.367 27.6722 60.367 28.3442C60.367 28.8882 60.375 29.2802 60.391 29.5202C60.407 29.7602 60.463 29.9682 60.559 30.1442C60.671 30.3042 60.855 30.3842 61.111 30.3842C61.271 30.3842 61.455 30.3122 61.663 30.1682C61.887 30.0242 62.087 29.8642 62.263 29.6882ZM66.7261 31.9442C65.6701 31.9442 64.8621 31.6082 64.3021 30.9362C63.7581 30.2482 63.4861 29.3602 63.4861 28.2722C63.4861 27.7922 63.5261 27.3602 63.6061 26.9762C63.7821 26.0162 64.1261 25.1602 64.6381 24.4082C65.1661 23.6562 65.7981 23.0722 66.5341 22.6562C67.2701 22.2402 68.0621 22.0322 68.9101 22.0322C69.9821 22.0322 70.7981 22.3602 71.3581 23.0162C71.9341 23.6562 72.2221 24.5202 72.2221 25.6082C72.2221 26.0402 72.1741 26.4962 72.0781 26.9762C71.8701 28.0322 71.4861 28.9362 70.9261 29.6882C70.3821 30.4242 69.7341 30.9842 68.9821 31.3682C68.2461 31.7522 67.4941 31.9442 66.7261 31.9442ZM67.5421 31.3442C68.0541 31.3442 68.4941 31.0482 68.8621 30.4562C69.2461 29.8642 69.5261 29.0562 69.7021 28.0322C69.8141 27.4082 69.8701 26.7762 69.8701 26.1362C69.8701 25.0962 69.7101 24.2482 69.3901 23.5922C69.0861 22.9362 68.6621 22.6082 68.1181 22.6082C67.6381 22.6082 67.2061 22.8882 66.8221 23.4482C66.4541 24.0082 66.1741 24.8402 65.9821 25.9442C65.8701 26.5682 65.8141 27.2002 65.8141 27.8402C65.8141 28.8802 65.9661 29.7282 66.2701 30.3842C66.5741 31.0242 66.9981 31.3442 67.5421 31.3442ZM88.475 29.7602C88.507 29.7282 88.539 29.7122 88.571 29.7122C88.619 29.7122 88.659 29.7442 88.691 29.8082C88.723 29.8562 88.715 29.9042 88.667 29.9522C88.123 30.5922 87.643 31.0642 87.227 31.3682C86.811 31.6722 86.379 31.8242 85.931 31.8242C85.163 31.8242 84.779 31.3682 84.779 30.4562C84.779 30.1362 84.811 29.8082 84.875 29.4722L85.595 25.6562C85.675 25.1762 85.715 24.8082 85.715 24.5522C85.715 23.7842 85.483 23.4002 85.019 23.4002C84.635 23.4002 84.227 23.6642 83.795 24.1922C83.363 24.7042 82.947 25.4802 82.547 26.5202C82.147 27.5602 81.803 28.8082 81.515 30.2642L81.323 31.3202C81.291 31.4642 81.163 31.5762 80.939 31.6562C80.715 31.7522 80.395 31.8002 79.979 31.8002C79.451 31.8002 79.187 31.7362 79.187 31.6082L79.283 31.1042C79.443 30.3522 79.531 29.9282 79.547 29.8322L80.339 25.6082C80.419 25.1602 80.459 24.8162 80.459 24.5762C80.459 24.1762 80.387 23.8802 80.243 23.6882C80.115 23.4962 79.931 23.4002 79.691 23.4002C79.291 23.4002 78.867 23.6882 78.419 24.2642C77.971 24.8242 77.547 25.6482 77.147 26.7362C76.747 27.8082 76.411 29.0722 76.139 30.5282L75.995 31.3202C75.915 31.6402 75.467 31.8002 74.651 31.8002C74.123 31.8002 73.859 31.7362 73.859 31.6082L73.955 31.1042C74.115 30.3522 74.203 29.9282 74.219 29.8322L75.203 24.4802C75.235 24.3362 75.251 24.1602 75.251 23.9522C75.251 23.5202 75.115 23.3042 74.843 23.3042C74.507 23.3042 74.043 23.6242 73.451 24.2642C73.435 24.2802 73.411 24.2882 73.379 24.2882C73.331 24.2882 73.291 24.2642 73.259 24.2162C73.227 24.1522 73.227 24.0962 73.259 24.0482C73.835 23.3762 74.347 22.8882 74.795 22.5842C75.259 22.2802 75.723 22.1282 76.187 22.1282C76.939 22.1282 77.315 22.5522 77.315 23.4002C77.315 23.6402 77.291 23.9042 77.243 24.1922L76.883 26.2082C77.411 24.8802 78.027 23.8562 78.731 23.1362C79.435 22.4002 80.179 22.0322 80.963 22.0322C81.475 22.0322 81.867 22.2002 82.139 22.5362C82.411 22.8562 82.547 23.3442 82.547 24.0002C82.547 24.2882 82.507 24.6722 82.427 25.1522L82.259 26.1362C82.787 24.8242 83.395 23.8162 84.083 23.1122C84.787 22.3922 85.515 22.0322 86.267 22.0322C87.291 22.0322 87.803 22.6802 87.803 23.9762C87.803 24.4082 87.763 24.8162 87.683 25.2002L86.915 29.4722C86.867 29.7122 86.843 29.9042 86.843 30.0482C86.843 30.4162 86.971 30.6002 87.227 30.6002C87.387 30.6002 87.555 30.5362 87.731 30.4082C87.923 30.2642 88.171 30.0482 88.475 29.7602ZM99.1206 29.7602C99.1366 29.7442 99.1606 29.7362 99.1926 29.7362C99.2406 29.7362 99.2806 29.7682 99.3126 29.8322C99.3446 29.8802 99.3446 29.9202 99.3126 29.9522C98.2886 31.2002 97.3926 31.8242 96.6246 31.8242C96.2086 31.8242 95.9046 31.7122 95.7126 31.4882C95.5206 31.2482 95.4246 30.8802 95.4246 30.3842C95.4246 30.1122 95.4486 29.8082 95.4966 29.4722L95.7846 27.8402C95.1766 29.1202 94.4486 30.1202 93.6006 30.8402C92.7686 31.5602 91.9526 31.9202 91.1526 31.9202C90.6566 31.9202 90.2646 31.7682 89.9766 31.4642C89.6886 31.1602 89.5446 30.7042 89.5446 30.0962C89.5446 29.0242 89.8966 27.8562 90.6006 26.5922C91.3206 25.3122 92.2006 24.2322 93.2406 23.3522C94.2966 22.4722 95.2886 22.0322 96.2166 22.0322C96.5046 22.0322 96.8006 22.0882 97.1046 22.2002C97.4246 22.2962 97.6966 22.4482 97.9206 22.6562C98.2246 22.4322 98.4726 22.1602 98.6646 21.8402C98.6966 21.8082 98.7286 21.7922 98.7606 21.7922C98.8086 21.7922 98.8566 21.8082 98.9046 21.8402C98.9526 21.8722 98.9686 21.8962 98.9526 21.9122L97.5606 29.4722C97.5126 29.6802 97.4886 29.8642 97.4886 30.0242C97.4886 30.4082 97.6006 30.6002 97.8246 30.6002C98.1286 30.6002 98.5606 30.3202 99.1206 29.7602ZM92.6886 30.1682C93.1686 30.1682 93.6566 29.9202 94.1526 29.4242C94.6646 28.9122 95.1046 28.2962 95.4726 27.5762C95.8566 26.8402 96.1046 26.1602 96.2166 25.5362C96.2646 25.2642 96.2886 25.0242 96.2886 24.8162C96.2886 24.3042 96.1686 23.9122 95.9286 23.6402C95.7046 23.3522 95.3846 23.2082 94.9686 23.2082C94.2326 23.2082 93.5766 23.6082 93.0006 24.4082C92.4406 25.1922 92.0486 26.2162 91.8246 27.4802C91.7446 27.9922 91.7046 28.3762 91.7046 28.6322C91.7046 29.1602 91.7926 29.5522 91.9686 29.8082C92.1446 30.0482 92.3846 30.1682 92.6886 30.1682Z" fill="#74073B"/>
</svg>
